<svg width="294" height="61" viewBox="0 0 294 61" fill="none" xmlns="http://www.w3.org/2000/svg">
<path d="M29.756 61L27.95 51.454H14.362L12.556 61H0.86L12.47 0.799996H30.272L41.28 61H29.756ZM20.984 11.98L17.63 32.018L15.738 42.252H26.488L24.51 32.018L21.156 11.98H20.984ZM60.2403 61H51.2103C48.6876 57.7893 46.9676 54.5787 46.0503 51.368C45.133 48.1573 44.6743 44.144 44.6743 39.328V17.054H56.1123V40.188C56.1123 45.4053 57.1443 49.3327 59.2083 51.97H67.2063V17.054H78.6443V61H69.6143L68.0663 57.904C65.8876 59.968 63.279 61 60.2403 61ZM88.5827 41.822V26.084H82.6487V17.054H88.5827V5.1H100.021V17.054H107.073V26.084H100.021V44.574C100.021 48.0713 100.623 50.5367 101.827 51.97H107.073V61H94.8607C91.822 58.1907 89.9874 55.152 89.3567 51.884C88.8407 49.132 88.5827 45.778 88.5827 41.822ZM138.098 61H119.35C113.617 55.668 110.75 48.3867 110.75 39.156C110.75 34.512 111.381 30.47 112.642 27.03C113.961 23.59 116.025 20.2647 118.834 17.054H138.958C141.939 20.494 143.975 23.848 145.064 27.116C146.153 30.3267 146.698 34.34 146.698 39.156C146.698 48.3867 143.831 55.668 138.098 61ZM125.456 51.97H131.992C134.056 47.9567 135.088 43.3987 135.088 38.296C135.088 33.1933 134.027 29.1227 131.906 26.084H125.456C123.392 29.008 122.36 33.1647 122.36 38.554C122.36 43.886 123.392 48.358 125.456 51.97ZM153.284 0.799996H176.16C179.772 2.004 182.84 4.24 185.362 7.508C187.942 10.7187 189.232 14.6747 189.232 19.376C189.232 27.0587 186.194 32.706 180.116 36.318L188.802 61H176.762L169.452 39.07H164.894V61H153.284V0.799996ZM164.894 11.12V29.438H172.29C173.265 29.2087 174.326 28.234 175.472 26.514C176.676 24.7367 177.278 22.6727 177.278 20.322C177.278 17.9713 176.762 15.9073 175.73 14.13C174.756 12.3527 173.781 11.3493 172.806 11.12H164.894ZM212.697 26.084H206.247C205.387 27.116 204.67 28.5493 204.097 30.384C203.581 32.2187 203.323 33.996 203.323 35.716H215.621C215.735 33.996 215.506 32.2187 214.933 30.384C214.359 28.492 213.614 27.0587 212.697 26.084ZM224.393 51.97V61H202.549C198.535 58.3053 195.697 54.98 194.035 51.024C192.429 47.0107 191.627 42.9687 191.627 38.898C191.627 29.4953 195.181 22.214 202.291 17.054H216.223C220.064 19.8633 222.673 22.8447 224.049 25.998C225.425 29.1513 226.113 32.3333 226.113 35.544C226.113 38.7547 225.855 41.5067 225.339 43.8H203.925C204.097 45.1187 204.584 46.638 205.387 48.358C206.247 50.0207 207.164 51.2247 208.139 51.97H224.393ZM250.976 17.054H260.092C262.614 20.2647 264.334 23.4753 265.252 26.686C266.169 29.8967 266.628 33.91 266.628 38.726V61H255.19V37.866C255.19 32.4193 254.444 28.492 252.954 26.084H243.322V61H231.884V17.054H240.828L242.376 20.15C243.637 19.0033 244.812 18.2007 245.902 17.742C247.048 17.2833 248.74 17.054 250.976 17.054ZM274.944 41.822V26.084H269.01V17.054H274.944V5.1H286.382V17.054H293.434V26.084H286.382V44.574C286.382 48.0713 286.984 50.5367 288.188 51.97H293.434V61H281.222C278.183 58.1907 276.349 55.152 275.718 51.884C275.202 49.132 274.944 45.778 274.944 41.822Z" fill="#AA1515"/>
</svg>
